<?xml version="1.0" encoding="UTF-8"?>
<svg width="60px" height="70px" viewBox="0 0 60 70" version="1.1" xmlns="http://www.w3.org/2000/svg" xmlns:xlink="http://www.w3.org/1999/xlink">
    <!-- Generator: Sketch 49.3 (51167) - http://www.bohemiancoding.com/sketch -->
    <title>Adult</title>
    <desc>Created with Sketch.</desc>
    <defs></defs>
    <g id="desktop" stroke="none" stroke-width="1" fill="none" fill-rule="evenodd">
        <g id="index2" transform="translate(-1240.000000, -4088.000000)" fill="#3399FF" fill-rule="nonzero">
            <g id="Adult" transform="translate(1240.000000, 4088.000000)">
                <path d="M51.660439,0 L51.660439,2.33333333 L55.8586829,2.33333333 L49.4688293,8.701 C41.0679512,1.19452083 28.1512683,1.89583333 20.6186341,10.2675417 C18.3261951,12.81525 16.715122,15.8977292 15.9343902,19.2301667 C4.92965854,21.8079167 -1.89468293,32.7877083 0.69204878,43.754375 C2.71814634,52.34425 10.0571707,58.6620417 18.8799512,59.4113333 L18.8799512,63 L14.1970244,63 L14.1970244,65.3333333 L18.8799512,65.3333333 L18.8799512,70 L21.2214146,70 L21.2214146,65.3333333 L25.9043415,65.3333333 L25.9043415,63 L21.2214146,63 L21.2214146,59.4708333 C30.4883415,59.1965208 38.4168293,52.7578333 40.5572195,43.7686667 C51.545122,41.2120625 58.3728293,30.2630417 55.8073171,19.3132917 C55.0265854,15.981 53.4155122,12.8985208 51.1230732,10.3506667 L57.5140976,3.983 L57.5140976,8.16666667 L59.855561,8.16666667 L59.855561,0 L51.660439,0 Z M20.6360488,57.1666667 C10.6141463,57.1507708 2.50273171,49.0415625 2.51868293,39.0544583 C2.53141463,31.0662917 7.80234146,24.0328958 15.4848293,21.7525 C14.2712195,32.9495833 22.3960976,43.007125 33.6321951,44.2166667 C35.0929756,44.373875 36.5664878,44.373875 38.0272683,44.2166667 C35.7395122,51.88925 28.6681463,57.1547083 20.6360488,57.1666667 Z M38.5587805,41.7771667 C28.734,43.3383125 19.4994146,36.6670208 17.9328293,26.8763542 C17.633122,25.0037083 17.633122,23.0954792 17.9328293,21.2228333 C27.7583415,19.6624167 36.9929268,26.3350208 38.5587805,36.1264167 C38.8581951,37.9981875 38.8581951,39.9053958 38.5587805,41.7771667 Z M53.2713659,29.0256458 C51.5281463,34.9088542 46.9106341,39.5103333 41.0069268,41.2475 L41.0057561,41.2475 C42.2193659,30.0502708 34.0944878,19.992875 22.8582439,18.7834792 C21.3979024,18.6262708 19.9248293,18.6262708 18.4644878,18.7833333 C21.3026341,9.205 31.3952195,3.73304167 41.0069268,6.56147917 C50.6184878,9.38977083 56.1095122,19.4473125 53.2713659,29.0256458 Z" id="Shape"></path>
            </g>
        </g>
    </g>
</svg>