<?xml version="1.0" encoding="UTF-8"?>
<svg width="60px" height="38px" viewBox="0 0 60 38" version="1.1" xmlns="http://www.w3.org/2000/svg" xmlns:xlink="http://www.w3.org/1999/xlink">
    <!-- Generator: Sketch 49.3 (51167) - http://www.bohemiancoding.com/sketch -->
    <title>Automotive</title>
    <desc>Created with Sketch.</desc>
    <defs></defs>
    <g id="desktop" stroke="none" stroke-width="1" fill="none" fill-rule="evenodd">
        <g id="index2" transform="translate(-622.000000, -4104.000000)" fill="#3399FF">
            <g id="Automotive" transform="translate(622.000000, 4104.000000)">
                <path d="M50.0004,29 C50.0004,28.45 50.4484,28 51.0004,28 C51.5524,28 52.0004,28.45 52.0004,29 C52.0004,29.55 51.5524,30 51.0004,30 C50.4484,30 50.0004,29.55 50.0004,29 Z M51.0004,36 C47.1404,36 44.0004,32.86 44.0004,29 C44.0004,26.624 45.1964,24.528 47.0124,23.262 L48.8444,26.924 C48.3244,27.462 48.0004,28.194 48.0004,29 C48.0004,30.654 49.3464,32 51.0004,32 C52.6544,32 54.0004,30.654 54.0004,29 C54.0004,27.346 52.6544,26 51.0004,26 C50.8744,26 50.7564,26.022 50.6364,26.038 L48.8104,22.384 C49.5044,22.154 50.2304,22 51.0004,22 C54.8604,22 58.0004,25.14 58.0004,29 C58.0004,32.86 54.8604,36 51.0004,36 Z M33.0004,16 C32.7344,16 32.4804,16.106 32.2924,16.292 L23.0004,25.586 L3.4144,6 L13.6864,6 C15.5284,6 17.3324,6.748 18.6364,8.05 L22.2924,11.708 C22.4804,11.894 22.7344,12 23.0004,12 L29.0004,12 C29.3784,12 29.7244,11.786 29.8944,11.448 C30.9584,9.32 33.0944,8 35.4724,8 L39.0004,8 C39.5524,8 40.0004,7.552 40.0004,7 L40.0004,2.034 C47.4764,2.528 53.4724,8.526 53.9664,16 L33.0004,16 Z M38.0004,29 L38.0004,30 L17.9004,30 C17.9364,29.668 18.0004,29.342 18.0004,29 C18.0004,28.658 17.9364,28.332 17.9004,28 L23.0004,28 C23.1304,28 23.2604,27.972 23.3824,27.924 C23.5044,27.874 23.6164,27.798 23.7084,27.706 L33.4144,18 L44.1044,18 C40.4444,20.302 38.0004,24.368 38.0004,29 Z M15.9004,30 L11.8164,30 C11.9284,29.686 12.0004,29.352 12.0004,29 C12.0004,28.648 11.9284,28.314 11.8164,28 L15.9004,28 C15.9464,28.33 16.0004,28.658 16.0004,29 C16.0004,29.342 15.9464,29.67 15.9004,30 Z M10.0004,29 C10.0004,29.55 9.5524,30 9.0004,30 C8.4484,30 8.0004,29.55 8.0004,29 C8.0004,28.45 8.4484,28 9.0004,28 C9.5524,28 10.0004,28.45 10.0004,29 Z M9.0004,36 C5.1404,36 2.0004,32.86 2.0004,29 C2.0004,25.14 5.1404,22 9.0004,22 C11.7824,22 14.1704,23.644 15.2984,26 L9.0004,26 C7.3464,26 6.0004,27.346 6.0004,29 C6.0004,30.654 7.3464,32 9.0004,32 L15.2984,32 C14.1704,34.356 11.7824,36 9.0004,36 Z M51.0004,20 C49.9104,20 48.8764,20.224 47.9104,20.582 L47.0004,18.764 C48.2424,18.278 49.5884,18 51.0004,18 L54.0004,18 L55.0004,18 C55.5524,18 56.0004,17.552 56.0004,17 C56.0004,7.626 48.3744,0 39.0004,0 C38.4484,0 38.0004,0.448 38.0004,1 L38.0004,2 L35.0004,2 C34.4484,2 34.0004,2.448 34.0004,3 C34.0004,3.552 34.4484,4 35.0004,4 L38.0004,4 L38.0004,6 L35.4724,6 C32.5444,6 29.8924,7.518 28.4084,10 L23.4144,10 L20.0504,6.636 C18.3744,4.96 16.0544,4 13.6864,4 L1.0004,4 C0.5964,4 0.2304,4.244 0.0764,4.618 C-0.0796,4.99 0.0064,5.422 0.2924,5.708 L20.5864,26 L17.4484,26 C16.2064,22.516 12.9064,20 9.0004,20 C4.0384,20 0.0004,24.038 0.0004,29 C0.0004,33.962 4.0384,38 9.0004,38 C12.9064,38 16.2064,35.484 17.4484,32 L39.0004,32 C39.5524,32 40.0004,31.552 40.0004,31 L40.0004,29 C40.0004,25.06 42.0904,21.606 45.2124,19.662 L46.1144,21.462 C43.6444,23.068 42.0004,25.84 42.0004,29 C42.0004,33.962 46.0384,38 51.0004,38 C55.9624,38 60.0004,33.962 60.0004,29 C60.0004,24.038 55.9624,20 51.0004,20 Z" id="Fill-1"></path>
            </g>
        </g>
    </g>
</svg>