<?xml version="1.0" encoding="UTF-8"?>
<svg width="60px" height="60px" viewBox="0 0 60 60" version="1.1" xmlns="http://www.w3.org/2000/svg" xmlns:xlink="http://www.w3.org/1999/xlink">
    <!-- Generator: Sketch 49.3 (51167) - http://www.bohemiancoding.com/sketch -->
    <title>Baby</title>
    <desc>Created with Sketch.</desc>
    <defs></defs>
    <g id="desktop" stroke="none" stroke-width="1" fill="none" fill-rule="evenodd">
        <g id="index2" transform="translate(-830.000000, -4093.000000)" fill="#3399FF">
            <g id="Baby" transform="translate(830.000000, 4093.000000)">
                <path d="M54.0704,38.8798 C53.6964,38.9618 53.3984,39.2498 53.3084,39.6218 C50.7064,50.4438 41.1204,58.0018 30.0004,58.0018 C18.8784,58.0018 9.2924,50.4438 6.6904,39.6218 C6.6004,39.2498 6.3044,38.9618 5.9304,38.8798 C3.6544,38.3818 2.0004,36.3318 2.0004,34.0018 C2.0004,31.6718 3.6544,29.6198 5.9304,29.1218 C6.3044,29.0398 6.6004,28.7538 6.6904,28.3798 C9.2924,17.5578 18.8784,10.0018 30.0004,10.0018 C41.1204,10.0018 50.7064,17.5578 53.3084,28.3798 C53.3984,28.7538 53.6964,29.0398 54.0704,29.1218 C56.3464,29.6198 58.0004,31.6718 58.0004,34.0018 C58.0004,36.3318 56.3464,38.3818 54.0704,38.8798 M55.1084,27.3318 C52.1784,16.2518 42.4344,8.4858 31.0244,8.0438 C31.1924,6.4398 32.1584,3.0878 37.2144,1.9778 C37.7544,1.8578 38.0964,1.3258 37.9764,0.7858 C37.8584,0.2478 37.3204,-0.0962 36.7844,0.0238 C32.3804,0.9918 30.4544,3.4418 29.6204,5.5518 C28.7244,4.0498 27.3184,2.4918 25.2164,2.0238 C24.6824,1.9118 24.1464,2.2438 24.0244,2.7838 C23.9044,3.3238 24.2444,3.8558 24.7824,3.9778 C26.8784,4.4418 28.0624,6.6558 28.6224,8.0578 C17.3644,8.6458 7.7904,16.3658 4.8904,27.3318 C2.0224,28.2418 0.0004,30.9498 0.0004,34.0018 C0.0004,37.0518 2.0224,39.7598 4.8904,40.6718 C7.9084,52.0838 18.1484,60.0018 30.0004,60.0018 C41.8504,60.0018 52.0904,52.0838 55.1084,40.6718 C57.9784,39.7598 60.0004,37.0518 60.0004,34.0018 C60.0004,30.9498 57.9784,28.2418 55.1084,27.3318" id="Fill-1"></path>
                <path d="M39,32.0008 C38.448,32.0008 38,31.5508 38,31.0008 C38,30.4508 38.448,30.0008 39,30.0008 C39.55,30.0008 40,30.4508 40,31.0008 C40,31.5508 39.55,32.0008 39,32.0008 M39,28.0008 C37.346,28.0008 36,29.3468 36,31.0008 C36,32.6548 37.346,34.0008 39,34.0008 C40.654,34.0008 42,32.6548 42,31.0008 C42,29.3468 40.654,28.0008 39,28.0008" id="Fill-4"></path>
                <path d="M21,30.0008 C21.55,30.0008 22,30.4508 22,31.0008 C22,31.5508 21.55,32.0008 21,32.0008 C20.448,32.0008 20,31.5508 20,31.0008 C20,30.4508 20.448,30.0008 21,30.0008 M21,34.0008 C22.654,34.0008 24,32.6548 24,31.0008 C24,29.3468 22.654,28.0008 21,28.0008 C19.346,28.0008 18,29.3468 18,31.0008 C18,32.6548 19.346,34.0008 21,34.0008" id="Fill-6"></path>
                <path d="M40.3672,44.2274 C34.2612,49.2194 25.7392,49.2194 19.6332,44.2274 C19.2052,43.8754 18.5752,43.9394 18.2272,44.3674 C17.8772,44.7954 17.9392,45.4254 18.3672,45.7734 C21.7912,48.5774 25.8972,49.9774 29.9992,49.9774 C34.1032,49.9774 38.2092,48.5774 41.6332,45.7734 C42.0612,45.4254 42.1232,44.7954 41.7732,44.3674 C41.4232,43.9374 40.7932,43.8734 40.3672,44.2274" id="Fill-8"></path>
                <path d="M30,42.0008 C31.738,42.0008 33.396,40.8788 33.944,39.3348 C34.126,38.8128 33.854,38.2408 33.332,38.0568 C32.812,37.8728 32.24,38.1468 32.056,38.6668 C31.792,39.4148 30.888,40.0008 30,40.0008 C29.112,40.0008 28.208,39.4168 27.942,38.6728 C27.756,38.1508 27.184,37.8748 26.664,38.0648 C26.144,38.2488 25.874,38.8208 26.056,39.3408 C26.606,40.8808 28.264,42.0008 30,42.0008" id="Fill-10"></path>
            </g>
        </g>
    </g>
</svg>