<?xml version="1.0" encoding="UTF-8"?>
<svg width="60px" height="60px" viewBox="0 0 60 60" version="1.1" xmlns="http://www.w3.org/2000/svg" xmlns:xlink="http://www.w3.org/1999/xlink">
    <!-- Generator: Sketch 49.3 (51167) - http://www.bohemiancoding.com/sketch -->
    <title>Books</title>
    <desc>Created with Sketch.</desc>
    <defs></defs>
    <g id="desktop" stroke="none" stroke-width="1" fill="none" fill-rule="evenodd">
        <g id="index2" transform="translate(-1038.000000, -4093.000000)" fill="#3399FF" fill-rule="nonzero">
            <g id="Books" transform="translate(1038.000000, 4093.000000)">
                <path d="M34.0417544,28.3989474 C34.2183626,28.7443275 34.5697076,28.9438596 34.9329825,28.9438596 C35.0846784,28.9438596 35.2403509,28.9088889 35.3851462,28.8350877 C35.4439766,28.8051462 41.3185965,25.8209357 44.2159064,24.905731 C44.7409357,24.7390643 45.0322807,24.1781287 44.865614,23.6532164 C44.699883,23.1281871 44.1430409,22.8357895 43.6130994,23.0015205 C40.5610526,23.9666667 34.7264327,26.9308772 34.4789474,27.0566082 C33.9878363,27.3060819 33.7922807,27.9070175 34.0417544,28.3989474 Z" id="Shape"></path>
                <path d="M34.9329825,16.9673684 C35.0846784,16.9673684 35.2403509,16.9323977 35.3851462,16.8585965 C35.4439766,16.828655 41.3185965,13.8444444 44.2159064,12.9292398 C44.7409357,12.7625731 45.0322807,12.2016374 44.865614,11.6767251 C44.699883,11.1516959 44.1430409,10.8592982 43.6130994,11.0250292 C40.5610526,11.9901754 34.7264327,14.954386 34.4789474,15.080117 C33.9879532,15.3295906 33.7922807,15.9304094 34.0417544,16.4224561 C34.2183626,16.7677193 34.5697076,16.9673684 34.9329825,16.9673684 Z" id="Shape"></path>
                <path d="M58.8852632,14.9712281 C58.3333333,14.9712281 57.8872515,15.4183626 57.8872515,15.9692398 L57.8872515,54.8932164 C57.8872515,56.5439766 56.5438596,57.8873684 54.8930994,57.8873684 L30.939883,57.8873684 L30.939883,55.5908772 C32.3950877,55.0818713 36.185614,53.8952047 39.9223392,53.8952047 C48.6163743,53.8952047 54.519883,55.8204678 54.5787135,55.8403509 C54.8790643,55.940117 55.2145029,55.8902924 55.4769591,55.7025731 C55.7374269,55.5149708 55.8911111,55.2135673 55.8911111,54.8930994 L55.8911111,10.9790643 C55.8911111,10.5109942 55.5667836,10.105731 55.1095906,10.0049123 C55.1095906,10.0049123 54.3271345,9.8302924 52.9897076,9.58467836 C52.4497076,9.48491228 51.9278363,9.84421053 51.8279532,10.3851462 C51.7281871,10.9280702 52.0864327,11.4480702 52.6284211,11.5478363 C53.1384795,11.6416374 53.565614,11.7244444 53.8949708,11.7904094 L53.8949708,53.5667836 C51.6333333,52.9739181 46.6112281,51.8990643 39.9222222,51.8990643 C35.5736842,51.8990643 31.3021053,53.3272515 29.9805848,53.811345 C28.805848,53.2923977 25.2548538,51.8990643 20.9591813,51.8990643 C14.0845614,51.8990643 8.42163743,53.0328655 5.98842105,53.6087719 L5.98842105,11.751462 C7.98152047,11.2614035 13.8680702,9.98093567 20.9591813,9.98093567 C24.5981287,9.98093567 27.7189474,11.1136842 28.9436257,11.625731 L28.9436257,50.9010526 C28.9436257,51.2603509 29.137193,51.5927485 29.4495906,51.7693567 C29.7619883,51.9470175 30.1472515,51.9419883 30.4556725,51.7563743 C30.5545029,51.6975439 40.4431579,45.7909942 49.22,42.865731 C49.6281871,42.7290058 49.9026901,42.3487719 49.9026901,41.9185965 L49.9026901,0.998479532 C49.9026901,0.671111111 49.7419883,0.364678363 49.4725146,0.178128655 C49.2050292,-0.0085380117 48.8617544,-0.0514619883 48.5533333,0.0633918129 C40.5679532,3.05847953 32.4878363,8.08666667 32.4069006,8.13660819 C31.9397661,8.42900585 31.797076,9.04479532 32.0894737,9.51192982 C32.3809357,9.97906433 32.9967251,10.1217544 33.4647953,9.82935673 C33.5385965,9.78245614 40.5679532,5.40900585 47.9065497,2.45777778 L47.9065497,41.2040936 C41.0938012,43.571462 33.9807018,47.4369591 30.9396491,49.1674854 L30.9396491,10.9790643 C30.9396491,10.6008187 30.7260819,10.2554386 30.3877193,10.085848 C30.2160234,10.0010526 26.1260819,7.98491228 20.9591813,7.98491228 C11.9408187,7.98491228 5.00736842,9.93614035 4.71590643,10.019883 C4.2877193,10.1416374 3.9922807,10.5339181 3.9922807,10.9790643 L3.9922807,54.8933333 C3.9922807,55.205731 4.14,55.5011696 4.38853801,55.6898246 C4.56421053,55.8225731 4.77578947,55.891462 4.99040936,55.891462 C5.08222222,55.891462 5.17403509,55.8784795 5.26385965,55.8525146 C5.33274854,55.8335673 12.234269,53.8953216 20.9591813,53.8953216 C24.6080702,53.8953216 27.7259649,55.0311111 28.9436257,55.5410526 L28.9436257,57.8874854 L4.99040936,57.8874854 C3.33964912,57.8874854 1.99625731,56.5440936 1.99625731,54.8933333 L1.99625731,15.9693567 C1.99625731,15.4184795 1.54912281,14.971345 0.998245614,14.971345 C0.447368421,14.971345 0.000233918129,15.4184795 0.000233918129,15.9693567 L0.000233918129,54.8933333 C0.000233918129,57.6449123 2.23883041,59.8836257 4.99052632,59.8836257 L54.8930994,59.8836257 C57.6446784,59.8836257 59.8833918,57.6450292 59.8833918,54.8933333 L59.8833918,15.9693567 C59.8832749,15.4183626 59.437193,14.9712281 58.8852632,14.9712281 Z" id="Shape"></path>
                <path d="M34.0417544,22.4106433 C34.2183626,22.7560234 34.5697076,22.9555556 34.9329825,22.9555556 C35.0846784,22.9555556 35.2403509,22.9205848 35.3851462,22.8467836 C35.4439766,22.8168421 41.3185965,19.8326316 44.2159064,18.9174269 C44.7409357,18.7507602 45.0322807,18.1898246 44.865614,17.6649123 C44.699883,17.139883 44.1430409,16.8474854 43.6130994,17.0132164 C40.5610526,17.9783626 34.7264327,20.9425731 34.4789474,21.0683041 C33.9878363,21.3177778 33.7922807,21.9187135 34.0417544,22.4106433 Z" id="Shape"></path>
                <path d="M34.0417544,34.3872515 C34.2183626,34.7326316 34.5697076,34.9321637 34.9329825,34.9321637 C35.0846784,34.9321637 35.2403509,34.897193 35.3851462,34.8233918 C35.4439766,34.7934503 41.3185965,31.8092398 44.2159064,30.8940351 C44.7409357,30.7273684 45.0322807,30.1664327 44.865614,29.6415205 C44.699883,29.1164912 44.1430409,28.8240936 43.6130994,28.9898246 C40.5610526,29.9549708 34.7264327,32.9191813 34.4789474,33.0449123 C33.9878363,33.294386 33.7922807,33.8953216 34.0417544,34.3872515 Z" id="Shape"></path>
                <path d="M24.1810526,18.5223392 C18.0181287,17.0761404 11.0147368,18.9185965 10.7203509,18.9974269 C10.1884211,19.140117 9.87204678,19.6870175 10.0147368,20.22 C10.1345029,20.6660819 10.5376608,20.9595322 10.9778947,20.9595322 C11.0637427,20.9595322 11.1505263,20.948538 11.2374269,20.925614 C11.3043275,20.9066667 18.0471345,19.1330994 23.7260819,20.4654971 C24.26,20.5902924 24.8,20.2578947 24.925731,19.7209357 C25.051345,19.1850292 24.7180117,18.6480702 24.1810526,18.5223392 Z" id="Shape"></path>
                <path d="M24.1810526,24.5106433 C18.0181287,23.0654971 11.0147368,24.9069006 10.7203509,24.985731 C10.1884211,25.1284211 9.87204678,25.6754386 10.0147368,26.2083041 C10.1345029,26.654386 10.5376608,26.9478363 10.9778947,26.9478363 C11.0637427,26.9478363 11.1505263,26.9368421 11.2374269,26.9139181 C11.3043275,26.8949708 18.0471345,25.1214035 23.7260819,26.4538012 C24.26,26.5785965 24.8,26.2461988 24.925731,25.7092398 C25.051345,25.1733333 24.7180117,24.6363743 24.1810526,24.5106433 Z" id="Shape"></path>
                <path d="M34.0417544,40.3755556 C34.2183626,40.7209357 34.5697076,40.9204678 34.9329825,40.9204678 C35.0846784,40.9204678 35.2403509,40.8854971 35.3851462,40.8116959 C35.4439766,40.7817544 41.3185965,37.7975439 44.2159064,36.8823392 C44.7409357,36.7156725 45.0322807,36.1547368 44.865614,35.6298246 C44.699883,35.1049123 44.1430409,34.8123977 43.6130994,34.9781287 C40.5610526,35.9432749 34.7264327,38.9074854 34.4789474,39.0332164 C33.9878363,39.2826901 33.7922807,39.8836257 34.0417544,40.3755556 Z" id="Shape"></path>
                <path d="M24.1810526,30.4989474 C18.0181287,29.0538012 11.0147368,30.894152 10.7203509,30.9740351 C10.1884211,31.1167251 9.87204678,31.6637427 10.0147368,32.1966082 C10.1345029,32.6426901 10.5376608,32.937193 10.9778947,32.937193 C11.0637427,32.937193 11.1505263,32.9252632 11.2374269,32.9022222 C11.3043275,32.8832749 18.0471345,31.1097076 23.7260819,32.4421053 C24.26,32.5669006 24.8,32.2345029 24.925731,31.6975439 C25.051345,31.1616374 24.7180117,30.6246784 24.1810526,30.4989474 Z" id="Shape"></path>
                <path d="M24.1810526,42.4755556 C18.0181287,41.0293567 11.0147368,42.8718129 10.7203509,42.9506433 C10.1884211,43.0933333 9.87204678,43.6403509 10.0147368,44.1732164 C10.1345029,44.6192982 10.5376608,44.9138012 10.9778947,44.9138012 C11.0637427,44.9138012 11.1505263,44.9018713 11.2374269,44.8788304 C11.3043275,44.859883 18.0471345,43.0863158 23.7260819,44.4187135 C24.26,44.5424561 24.8,44.2111111 24.925731,43.674152 C25.051345,43.1382456 24.7180117,42.6012865 24.1810526,42.4755556 Z" id="Shape"></path>
                <path d="M24.1810526,36.4872515 C18.0181287,35.0410526 11.0147368,36.8824561 10.7203509,36.9623392 C10.1884211,37.1050292 9.87204678,37.6520468 10.0147368,38.1849123 C10.1345029,38.6309942 10.5376608,38.9254971 10.9778947,38.9254971 C11.0637427,38.9254971 11.1505263,38.9135673 11.2374269,38.8905263 C11.3043275,38.8715789 18.0471345,37.0980117 23.7260819,38.4304094 C24.26,38.5552047 24.8,38.222807 24.925731,37.685848 C25.051345,37.1499415 24.7180117,36.6129825 24.1810526,36.4872515 Z" id="Shape"></path>
            </g>
        </g>
    </g>
</svg>