<?xml version="1.0" encoding="UTF-8"?>
<svg width="60px" height="40px" viewBox="0 0 60 40" version="1.1" xmlns="http://www.w3.org/2000/svg" xmlns:xlink="http://www.w3.org/1999/xlink">
    <!-- Generator: Sketch 49.3 (51167) - http://www.bohemiancoding.com/sketch -->
    <title>Electronics</title>
    <desc>Created with Sketch.</desc>
    <defs></defs>
    <g id="desktop" stroke="none" stroke-width="1" fill="none" fill-rule="evenodd">
        <g id="index2" transform="translate(-414.000000, -4103.000000)" fill="#3399FF">
            <g id="Electronics" transform="translate(414.000000, 4103.000000)">
                <path d="M2,28 L40,28 L40,2 L2,2 L2,28 Z M18,38 L24,38 L24,30 L18,30 L18,38 Z M41,0 L1,0 C0.448,0 0,0.448 0,1 L0,29 C0,29.552 0.448,30 1,30 L16,30 L16,38 L13,38 C12.448,38 12,38.448 12,39 C12,39.552 12.448,40 13,40 L29,40 C29.552,40 30,39.552 30,39 C30,38.448 29.552,38 29,38 L26,38 L26,30 L41,30 C41.552,30 42,29.552 42,29 L42,1 C42,0.448 41.552,0 41,0 Z" id="Fill-1"></path>
                <path d="M46,38 L58,38 L58,2 L46,2 L46,38 Z M59,0 L45,0 C44.448,0 44,0.448 44,1 L44,39 C44,39.552 44.448,40 45,40 L59,40 C59.552,40 60,39.552 60,39 L60,1 C60,0.448 59.552,0 59,0 Z" id="Fill-3"></path>
                <path d="M49,8 L55,8 C55.552,8 56,7.552 56,7 C56,6.448 55.552,6 55,6 L49,6 C48.448,6 48,6.448 48,7 C48,7.552 48.448,8 49,8" id="Fill-4"></path>
                <path d="M49,12 L55,12 C55.552,12 56,11.552 56,11 C56,10.448 55.552,10 55,10 L49,10 C48.448,10 48,10.448 48,11 C48,11.552 48.448,12 49,12" id="Fill-5"></path>
                <path d="M52,28 C53.102,28 54,28.898 54,30 C54,31.102 53.102,32 52,32 C50.898,32 50,31.102 50,30 C50,28.898 50.898,28 52,28 M52,34 C54.206,34 56,32.206 56,30 C56,27.794 54.206,26 52,26 C49.794,26 48,27.794 48,30 C48,32.206 49.794,34 52,34" id="Fill-6"></path>
            </g>
        </g>
    </g>
</svg>