<?xml version="1.0" encoding="UTF-8"?>
<svg width="60px" height="44px" viewBox="0 0 60 44" version="1.1" xmlns="http://www.w3.org/2000/svg" xmlns:xlink="http://www.w3.org/1999/xlink">
    <!-- Generator: Sketch 49.3 (51167) - http://www.bohemiancoding.com/sketch -->
    <title>Furniture</title>
    <desc>Created with Sketch.</desc>
    <defs></defs>
    <g id="desktop" stroke="none" stroke-width="1" fill="none" fill-rule="evenodd">
        <g id="index2" transform="translate(-414.000000, -4306.000000)" fill="#3399FF">
            <g id="Furniture" transform="translate(414.000000, 4305.000000)">
                <path d="M54.667,24.6972 C54.267,24.8372 54.001,25.2172 54.001,25.6412 L54.001,35.9992 C54.001,37.6552 52.655,38.9992 51.001,38.9992 L9.001,38.9992 C7.345,38.9992 6.001,37.6552 6.001,35.9992 L6.001,25.6412 C6.001,25.2172 5.733,24.8372 5.333,24.6972 C3.339,23.9932 2.001,22.1052 2.001,19.9992 C2.001,18.6132 2.553,17.3252 3.559,16.3712 C4.497,15.4812 5.709,14.9992 6.997,14.9992 C7.087,14.9992 7.179,15.0032 7.269,15.0072 C9.877,15.1452 12.001,17.5372 12.001,20.3392 L12.001,25.9992 C12.001,26.3052 12.139,26.5952 12.379,26.7852 C12.619,26.9732 12.929,27.0432 13.229,26.9732 C24.201,24.3912 35.799,24.3912 46.771,26.9732 C47.067,27.0392 47.381,26.9732 47.621,26.7852 C47.861,26.5952 48.001,26.3052 48.001,25.9992 L48.001,20.3392 C48.001,17.5372 50.123,15.1452 52.731,15.0072 C54.113,14.9292 55.437,15.4192 56.441,16.3712 C57.447,17.3252 58.001,18.6132 58.001,19.9992 C58.001,22.1052 56.661,23.9932 54.667,24.6972 Z M46.001,42.9992 L48.001,42.9992 L48.001,40.9992 L46.001,40.9992 L46.001,42.9992 Z M12.001,42.9992 L14.001,42.9992 L14.001,40.9992 L12.001,40.9992 L12.001,42.9992 Z M10.001,9.9992 C10.001,6.1412 13.141,2.9992 17.001,2.9992 L43.001,2.9992 C46.859,2.9992 50.001,6.1412 50.001,9.9992 L50.001,13.7252 C47.651,14.9212 46.001,17.4732 46.001,20.3392 L46.001,24.7472 C35.503,22.4672 24.497,22.4672 14.001,24.7472 L14.001,20.3392 C14.001,17.4732 12.349,14.9212 10.001,13.7252 L10.001,9.9992 Z M57.817,14.9192 C56.413,13.5872 54.573,12.9212 52.625,13.0092 C52.411,13.0212 52.209,13.0772 52.001,13.1092 L52.001,9.9992 C52.001,5.0372 47.963,0.9992 43.001,0.9992 L17.001,0.9992 C12.037,0.9992 8.001,5.0372 8.001,9.9992 L8.001,13.1092 C7.791,13.0772 7.589,13.0212 7.375,13.0092 C5.443,12.9212 3.589,13.5872 2.183,14.9192 C0.775,16.2552 0.001,18.0612 0.001,19.9992 C0.001,22.7112 1.581,25.1612 4.001,26.3092 L4.001,35.9992 C4.001,38.7552 6.243,40.9992 9.001,40.9992 L10.001,40.9992 L10.001,43.9992 C10.001,44.5532 10.447,44.9992 11.001,44.9992 L15.001,44.9992 C15.553,44.9992 16.001,44.5532 16.001,43.9992 L16.001,40.9992 L44.001,40.9992 L44.001,43.9992 C44.001,44.5532 44.447,44.9992 45.001,44.9992 L49.001,44.9992 C49.553,44.9992 50.001,44.5532 50.001,43.9992 L50.001,40.9992 L51.001,40.9992 C53.757,40.9992 56.001,38.7552 56.001,35.9992 L56.001,26.3092 C58.419,25.1612 60.001,22.7112 60.001,19.9992 C60.001,18.0612 59.225,16.2552 57.817,14.9192 Z" id="Fill-1"></path>
            </g>
        </g>
    </g>
</svg>