<?xml version="1.0" encoding="UTF-8"?>
<svg width="60px" height="64px" viewBox="0 0 60 64" version="1.1" xmlns="http://www.w3.org/2000/svg" xmlns:xlink="http://www.w3.org/1999/xlink">
    <!-- Generator: Sketch 49.3 (51167) - http://www.bohemiancoding.com/sketch -->
    <title>Homa</title>
    <desc>Created with Sketch.</desc>
    <defs></defs>
    <g id="desktop" stroke="none" stroke-width="1" fill="none" fill-rule="evenodd">
        <g id="index2" transform="translate(-827.000000, -4296.000000)" fill="#3399FF">
            <path d="M852.714286,4357.86667 L857,4357.86667 L857,4338.66667 L852.714286,4338.66667 L852.714286,4357.86667 Z M829.142857,4314.13333 L880.571429,4314.13333 L880.571429,4298.13333 L829.142857,4298.13333 L829.142857,4314.13333 Z M885.928571,4304.53333 L882.714286,4304.53333 L882.714286,4297.06667 C882.714286,4296.47787 882.234286,4296 881.642857,4296 L828.071429,4296 C827.48,4296 827,4296.47787 827,4297.06667 L827,4315.2 C827,4315.7888 827.48,4316.26667 828.071429,4316.26667 L881.642857,4316.26667 C882.234286,4316.26667 882.714286,4315.7888 882.714286,4315.2 L882.714286,4306.66667 L884.857143,4306.66667 L884.857143,4319.66507 L854.638571,4325.89013 C854.141429,4325.99253 853.785714,4326.42773 853.785714,4326.93333 L853.785714,4336.53333 L851.642857,4336.53333 C851.051429,4336.53333 850.571429,4337.0112 850.571429,4337.6 L850.571429,4358.93333 C850.571429,4359.52213 851.051429,4360 851.642857,4360 L858.071429,4360 C858.662857,4360 859.142857,4359.52213 859.142857,4358.93333 L859.142857,4337.6 C859.142857,4337.0112 858.662857,4336.53333 858.071429,4336.53333 L855.928571,4336.53333 L855.928571,4327.8016 L886.147143,4321.57653 C886.642143,4321.47413 887,4321.03893 887,4320.53333 L887,4305.6 C887,4305.0112 886.52,4304.53333 885.928571,4304.53333 Z" id="Homa"></path>
        </g>
    </g>
</svg>