<?xml version="1.0" encoding="UTF-8"?>
<svg width="50px" height="55px" viewBox="0 0 50 55" version="1.1" xmlns="http://www.w3.org/2000/svg" xmlns:xlink="http://www.w3.org/1999/xlink">
    <!-- Generator: Sketch 49.3 (51167) - http://www.bohemiancoding.com/sketch -->
    <title>Industrial Supplies</title>
    <desc>Created with Sketch.</desc>
    <defs></defs>
    <g id="desktop" stroke="none" stroke-width="1" fill="none" fill-rule="evenodd">
        <g id="index2" transform="translate(-1037.000000, -4298.000000)" fill="#3399FF" fill-rule="nonzero">
            <g id="Industrial-Supplies" transform="translate(1037.000000, 4298.000000)">
                <path d="M49.5657491,22.7060198 C49.0719418,22.2162404 48.331231,22.2162404 47.8374237,22.7060198 L23.147062,47.1949896 C17.7151824,52.582563 9.81426666,53.3172321 5.49345336,48.9092175 C1.04918825,44.5012029 1.91335091,36.6647326 7.22177868,31.3996041 L33.2701103,5.56374089 C36.726761,2.13528511 41.9117369,1.52306087 44.7511285,4.3392924 C47.5905201,7.15552393 47.0967129,12.2982076 43.5166104,15.7266634 L20.4311222,38.6238502 C19.4435077,39.603409 18.2089897,40.2156332 16.9744716,40.3380781 C15.7399535,40.4605229 14.752339,40.0931884 14.0116282,39.3585193 C12.4067546,37.7667362 12.7771101,34.9505047 14.752339,32.9913871 L30.1838151,17.685781 C30.6776223,17.1960016 30.6776223,16.4613325 30.1838151,15.9715531 C29.6900079,15.4817737 28.949297,15.4817737 28.4554898,15.9715531 L12.9005619,31.2771592 L12.7771101,31.3996041 C12.7771101,31.3996041 12.7771101,31.5220489 12.6536583,31.5220489 C9.93771847,34.4607253 9.69081486,38.6238502 12.159851,41.0727472 C13.3943691,42.2971957 15.1226944,42.9094199 17.0979234,42.7869751 C18.9497005,42.6645302 20.6780258,41.8074163 22.1594475,40.3380781 L45.2449358,17.4408913 C49.6892009,13.0328767 50.3064599,6.29840999 46.4794538,2.50261966 C42.6524478,-1.29317066 35.9860501,-0.680946418 31.4183332,3.72706815 L5.37000155,29.5629313 C-0.926040689,35.8076187 -1.79020335,45.235872 3.64167623,50.6234454 C5.9872606,52.9498975 9.19700762,54.174346 12.6536583,54.174346 C16.8510198,54.174346 21.2952849,52.3376733 24.8753873,48.9092175 L49.5657491,24.4202477 C50.0595563,23.9304683 50.0595563,23.1957992 49.5657491,22.7060198 Z" id="Shape"></path>
            </g>
        </g>
    </g>
</svg>