<?xml version="1.0" encoding="UTF-8"?>
<svg width="60px" height="60px" viewBox="0 0 60 60" version="1.1" xmlns="http://www.w3.org/2000/svg" xmlns:xlink="http://www.w3.org/1999/xlink">
    <!-- Generator: Sketch 49.3 (51167) - http://www.bohemiancoding.com/sketch -->
    <title>Jewelry</title>
    <desc>Created with Sketch.</desc>
    <defs></defs>
    <g id="desktop" stroke="none" stroke-width="1" fill="none" fill-rule="evenodd">
        <g id="index2" transform="translate(-1239.000000, -4296.000000)" fill="#3399FF">
            <g id="Jewelry" transform="translate(1239.000000, 4296.000000)">
                <path d="M44.2906,58 L15.7106,58 L2.2606,19.572 L16.1586,14.014 C17.0606,20.234 22.0846,25.102 28.2726,25.878 L24.1526,32.47 C23.9506,32.794 23.9506,33.206 24.1526,33.53 L29.1526,41.53 C29.3346,41.822 29.6566,42 30.0006,42 C30.3446,42 30.6666,41.822 30.8486,41.53 L35.8486,33.53 C36.0506,33.206 36.0506,32.794 35.8486,32.47 L31.7286,25.878 C37.9146,25.102 42.9386,20.232 43.8426,14.014 L57.7406,19.572 L44.2906,58 Z M33.8206,33 L30.0006,39.114 L26.1806,33 L30.0006,26.886 L33.8206,33 Z M18.8566,12.936 C20.7666,12.17 22.0006,10.348 22.0006,8.292 L22.0006,2 L38.0006,2 L38.0006,8.292 C38.0006,10.348 39.2346,12.17 41.1446,12.936 L41.9246,13.246 C41.2966,19.3 36.1266,24 30.0006,24 C23.8726,24 18.7046,19.3 18.0766,13.246 L18.8566,12.936 Z M59.3726,18.07 L41.8866,11.078 C40.7406,10.62 40.0006,9.526 40.0006,8.292 L40.0006,1 C40.0006,0.448 39.5526,0 39.0006,0 L21.0006,0 C20.4486,0 20.0006,0.448 20.0006,1 L20.0006,8.292 C20.0006,9.526 19.2606,10.62 18.1146,11.078 L0.6286,18.07 C0.1326,18.272 -0.1214,18.826 0.0566,19.33 L14.0566,59.33 C14.1966,59.73 14.5766,60 15.0006,60 L45.0006,60 C45.4246,60 45.8046,59.73 45.9446,59.33 L59.9446,19.33 C60.1226,18.826 59.8686,18.272 59.3726,18.07 Z" id="Fill-1"></path>
            </g>
        </g>
    </g>
</svg>