<?xml version="1.0" encoding="utf-8"?>
<!-- Generator: Adobe Illustrator 22.0.0, SVG Export Plug-In . SVG Version: 6.00 Build 0)  -->
<svg version="1.1" height="50" id="Слой_1" xmlns="http://www.w3.org/2000/svg" xmlns:xlink="http://www.w3.org/1999/xlink" x="0px" y="0px"
	 viewBox="0 0 50 28" style="enable-background:new 0 0 50 28;" xml:space="preserve">
<style type="text/css">
	.st0{fill:#FFFFFF;stroke:#CDCDCD;}
	.st1{enable-background:new    ;}
	.st2{fill:#CDCDCD;}
</style>
<title>3d</title>
<desc>Created with Sketch.</desc>
<path id="Rectangle-Copy-10" class="st0" d="M3.5,0.5h43c1.7,0,3,1.3,3,3v21c0,1.7-1.3,3-3,3h-43c-1.7,0-3-1.3-3-3v-21
	C0.5,1.8,1.8,0.5,3.5,0.5z"/>
<g class="st1">
	<path class="st2" d="M14,12.2h1.2c0.3,0,0.7,0,1-0.1c0.3,0,0.6-0.1,0.9-0.3c0.3-0.1,0.5-0.3,0.6-0.6c0.2-0.2,0.2-0.6,0.2-1
		c0-0.5-0.2-0.9-0.6-1.3c-0.4-0.3-0.9-0.5-1.5-0.5c-0.6,0-1,0.2-1.4,0.5s-0.6,0.7-0.7,1.1l-4-0.8c0.2-0.7,0.5-1.4,0.9-1.9
		C11,6.9,11.4,6.5,12,6.2s1.1-0.6,1.8-0.7c0.6-0.2,1.3-0.2,2.1-0.2c0.8,0,1.5,0.1,2.2,0.3c0.7,0.2,1.3,0.5,1.8,0.9
		c0.5,0.4,0.9,0.9,1.3,1.5s0.5,1.3,0.5,2.1c0,0.9-0.2,1.8-0.7,2.4c-0.5,0.7-1.2,1.1-2.2,1.3v0.1c0.5,0.1,1,0.2,1.4,0.5
		c0.4,0.2,0.7,0.5,1,0.9c0.3,0.4,0.5,0.8,0.6,1.2s0.2,0.9,0.2,1.4c0,0.8-0.2,1.6-0.5,2.2c-0.3,0.6-0.8,1.2-1.3,1.6
		c-0.6,0.4-1.2,0.7-1.9,0.9c-0.7,0.2-1.5,0.3-2.4,0.3c-1.5,0-2.8-0.4-3.9-1.1c-1.1-0.7-1.8-1.8-2.2-3.3l3.8-0.9
		c0.1,0.6,0.4,1.1,0.8,1.4s1,0.5,1.7,0.5c0.8,0,1.4-0.2,1.7-0.6s0.6-0.9,0.6-1.6c0-0.5-0.1-0.9-0.3-1.1c-0.2-0.3-0.5-0.5-0.8-0.6
		c-0.3-0.1-0.7-0.2-1.1-0.2c-0.4,0-0.8,0-1.2,0H14V12.2z"/>
	<path class="st2" d="M24.7,5.5h5.6c1.4,0,2.7,0.2,3.9,0.5c1.2,0.3,2.3,0.8,3.2,1.5c0.9,0.7,1.6,1.6,2.2,2.7c0.5,1.1,0.8,2.4,0.8,4
		c0,1.4-0.3,2.6-0.8,3.6c-0.5,1-1.2,1.9-2.1,2.6s-1.9,1.3-3,1.6s-2.4,0.6-3.6,0.6h-6.1V5.5z M28.5,19h1.9c0.9,0,1.7-0.1,2.4-0.3
		c0.7-0.2,1.4-0.5,1.9-0.9c0.5-0.4,1-0.9,1.3-1.6c0.3-0.7,0.5-1.5,0.5-2.4c0-0.8-0.2-1.6-0.5-2.2c-0.3-0.6-0.7-1.1-1.3-1.5
		c-0.5-0.4-1.1-0.7-1.9-0.9C32.2,9.1,31.5,9,30.7,9h-2.2V19z"/>
</g>
</svg>
