<?xml version="1.0" encoding="utf-8"?>
<!-- Generator: Adobe Illustrator 22.0.0, SVG Export Plug-In . SVG Version: 6.00 Build 0)  -->
<svg version="1.1" id="Layer_1" xmlns="http://www.w3.org/2000/svg" xmlns:xlink="http://www.w3.org/1999/xlink" x="0px" y="0px"
	 viewBox="0 0 175.7 27.1" style="enable-background:new 0 0 175.7 27.1;" xml:space="preserve">
<style type="text/css">
	.st0{fill-rule:evenodd;clip-rule:evenodd;fill:#A71833;}
</style>
<g>
	<path class="st0" d="M10.9,0.5L0.6,9.8C0.2,10.2,0,10.7,0,11.2v14.2c0,1,0.8,1.8,1.8,1.8h20.9c1,0,1.8-0.8,1.8-1.8V11.2
		c0-0.5-0.2-1-0.6-1.3L13.3,0.5C12.6-0.2,11.6-0.2,10.9,0.5L10.9,0.5z M12.1,3.6c1.9,1.7,8.2,7.3,9.2,8.2c0,1.3,0,9.6,0,12.3
		c-2.9,0-15.4,0-18.3,0c0-2.7,0-11,0-12.3C4,11,10.3,5.3,12.1,3.6L12.1,3.6z"/>
	<path class="st0" d="M12.1,10.4c-0.9,0.8-3.7,3.4-4.2,3.8c0,0.6,0,4.4,0,5.7c1.3,0,7.1,0,8.4,0c0-1.2,0-5,0-5.7
		C15.9,13.8,13,11.2,12.1,10.4L12.1,10.4z"/>
	<polygon class="st0" points="115.7,9.7 115.7,13.1 122.4,13.1 122.4,25.8 126.1,25.8 126.1,13.1 132.6,13.1 132.6,9.7 115.7,9.7 	
		"/>
	<path class="st0" d="M172.1,9.7v11.4l-10.1-10.4c-0.9-0.9-1.9-1.3-3.1-1.1c-1,0.2-1.7,1-1.7,2.2v14h3.6V14.4l9.9,10.2
		c1,1.1,2,1.5,3,1.3c1.8-0.3,2-1.5,2-2.5V9.7H172.1L172.1,9.7z"/>
	<path class="st0" d="M134.4,17.7c0,7,3.5,8.3,9.8,8.3c6.3,0,9.8-1.4,9.8-8.3c0-7-3.5-8.3-9.8-8.3C137.9,9.4,134.4,10.8,134.4,17.7
		L134.4,17.7z M150.1,17.7c0,4.6-2,4.9-5.9,4.9c-3.9,0-5.9-0.2-5.9-4.9c0-4.6,2-4.9,5.9-4.9C148.1,12.9,150.1,13.1,150.1,17.7
		L150.1,17.7z"/>
	<polygon class="st0" points="87.2,25.8 90.9,25.8 90.9,9.7 87.2,9.7 87.2,25.8 	"/>
	<path class="st0" d="M79.2,19.7c2.3-0.6,3.6-2.3,3.6-4.7c0-3.2-2.1-5.3-5.6-5.3H65.8v16h3.6V20h5.8l4,5.7h4.2L79.2,19.7L79.2,19.7z
		 M69.4,13.1c0.6,0,7.4,0,7.4,0c2.2,0,2.4,1,2.4,1.9c0,0.9-0.3,1.9-2.4,1.9c0,0-6.8,0-7.4,0C69.4,16.4,69.4,13.6,69.4,13.1
		L69.4,13.1z"/>
	<path class="st0" d="M105.8,15.7h-3.2c-2.8,0-3.3-0.5-3.3-1.5c0-1.2,1.8-1.7,4.5-1.7c2.3,0,4.5,0.4,7,1.6l1.9-2.7
		c-2.7-1.7-5.5-2.3-8.9-2.3c-5.2,0-8.4,2-8.4,5.3c0,3.6,3,4.8,6.8,4.8h3.5c3.5,0,4,0.4,4,1.7c0,1.3-1.9,2.1-5,2.1
		c-2.7,0-5.5-0.5-8-2.2c0,0-2,2.8-2,2.8c2.6,2.1,5.9,2.8,9.9,2.8c5.7,0,9-2.1,9-5.7C113.7,17.3,111,15.7,105.8,15.7L105.8,15.7z"/>
	<path class="st0" d="M52.2,9.2c-0.7,0-1.5,0.3-1.8,0.9l-9.5,15.6h4.3l1.7-2.9h10.6l1.7,2.9h4.3l-9.5-15.6C53.7,9.6,53,9.2,52.2,9.2
		L52.2,9.2z M52.2,13.9c0.1,0.2,1.9,3.1,3.6,6h-7.1C48.7,19.9,52.1,14.1,52.2,13.9L52.2,13.9L52.2,13.9z"/>
</g>
</svg>
