<?xml version="1.0" encoding="utf-8"?>
<!-- Generator: Adobe Illustrator 22.0.0, SVG Export Plug-In . SVG Version: 6.00 Build 0)  -->
<svg version="1.1" id="Layer_1" xmlns="http://www.w3.org/2000/svg" xmlns:xlink="http://www.w3.org/1999/xlink" x="0px" y="0px"
	 viewBox="0 0 444.6 104.1" style="enable-background:new 0 0 444.6 104.1;" xml:space="preserve">
<style type="text/css">
	.st0{fill:#231F20;}
</style>
<g id="XMLID_2_">
	<path id="XMLID_10_" class="st0" d="M372.8,4.5l-5.4,15.1c21.4-4.2,42.5-4.2,42.5-4.2l5.5-15.1C415.3,0.3,394,0.3,372.8,4.5
		 M377.7,104.1l28.4-78.4c0,0-21.3,0-42.5,4.3l-26.9,74.1H377.7z"/>
	<path id="XMLID_9_" class="st0" d="M219.4,99.8c14.4,2.8,29.3,4.3,44.6,4.3c24.2,0,34.2-2.4,46.7-8.8c10.7-5.5,17.7-11.3,20.8-21.3
		c2.6-8.6-0.7-16.7-8.4-21.8c-7.7-5.1-15.1-7.6-24-12.5c-7.7-4.3-11.9-7.5-11.4-11.9c1.1-9.4,11.1-12.4,24.9-12.4
		c13.5,0,26.6,1.2,39.4,3.5l5.2-14.4c-14.4-2.8-29.3-4.3-44.6-4.3c-24.2,0-34.1,2.4-46.7,8.8c-10.7,5.5-17.7,11.3-20.7,21.3
		c-2.6,8.6,0.7,16.7,8.4,21.8c7.7,5.1,15.1,7.6,23.9,12.5c7.7,4.3,12,7.5,11.4,11.9C287.9,85.9,277.8,89,264,89
		c-13.5,0-26.6-1.2-39.4-3.6L219.4,99.8z"/>
	<path id="XMLID_8_" class="st0" d="M203.8,104.1l26.4-72.7c2.1-5.9,2.3-16.5-3.6-22.3c-5.9-5.8-13-8.8-26-8.8
		c-13,0-23.6,3.4-32.1,6.7c-4.6,1.8-11.4,5.3-19,9.9c-0.7-2.9-2.1-5.7-4.3-7.8c-5.9-5.8-13-8.8-26-8.8C106,0.3,95.5,3.7,87,7
		c-4.6,1.8-11.3,5.3-19,9.9c-0.7-2.9-2.1-5.7-4.2-7.8c-5.9-5.8-13-8.8-26-8.8L0,104.1h40.9l18.8-51.9c3.4-9.4,12.7-18.4,17.8-22.3
		c6.5-5,35.5-13,27.6,8.8l-23.7,65.4h40.9l18.8-51.9c3.4-9.4,12.7-18.4,17.8-22.3c6.5-5,35.5-13,27.6,8.8l-23.7,65.4H203.8z"/>
	<path id="XMLID_3_" class="st0" d="M436.5,4.9h-1.7v3.2h1.7c1,0,1.7-0.7,1.7-1.6C438.2,5.6,437.5,4.9,436.5,4.9 M438.3,13l-2.1-3.7
		h-1.4V13h-1.3V3.8h3.1c1.6,0,2.9,1.2,2.9,2.8c0,1.3-0.8,2.2-1.9,2.5l2.2,3.9H438.3z M436.3,1.2c-3.9,0-7.1,3.2-7.1,7.2
		c0,3.9,3.1,7.2,7.1,7.2c3.9,0,7.1-3.2,7.1-7.2C443.3,4.5,440.1,1.2,436.3,1.2 M436.3,16.8c-4.7,0-8.4-3.7-8.4-8.4
		c0-4.6,3.7-8.4,8.4-8.4c4.6,0,8.4,3.7,8.4,8.4C444.6,13,440.9,16.8,436.3,16.8"/>
</g>
</svg>
