<?xml version="1.0" encoding="utf-8"?>
<!-- Generator: Adobe Illustrator 22.0.0, SVG Export Plug-In . SVG Version: 6.00 Build 0)  -->
<svg version="1.1" id="Layer_1" xmlns="http://www.w3.org/2000/svg" xmlns:xlink="http://www.w3.org/1999/xlink" x="0px" y="0px"
	 viewBox="0 0 692.4 101.5" style="enable-background:new 0 0 692.4 101.5;" xml:space="preserve">
<style type="text/css">
	.st0{fill:#1D29A7;}
</style>
<path class="st0" d="M379.6,47.1c0,0-6.7-4.2-10.9-5.8c0,0-12.9-6-15.4-8.8c0,0-5-4.7-2.1-10.2c0,0,1.2-3.6,6.5-3.6
	c0,0,6.9,0.4,6.9,6.1v8h24.8V21c0,0,1.9-19.3-29.2-20.2c0,0-24.4-1.6-31.5,11.6c0,0-2.8,2.9-2.8,13.2V33c0,0-0.3,8.5,4.1,14
	c0,0,2.5,3.6,8.5,7.6c0,0,12.3,6.6,19.7,10.4c0,0,7.5,4.3,6.5,11c0,0-0.6,7-7.8,6.7c0,0-6.6-0.3-6.6-7.1v-8H324v11.6
	c0,0-0.7,22.3,33.2,22.3c0,0,32.4,0.7,33.9-22.8V69C391.1,69,392.2,54.6,379.6,47.1L379.6,47.1z"/>
<polygon class="st0" points="252.8,3.5 244.5,55.5 242.6,55.5 234.6,4 193.3,4 191.2,98.1 215.7,98.1 216,27.2 217.9,27.2 
	230.9,98.1 256.7,98.1 269.5,27.2 271.2,27.2 271.8,98.1 296.4,98.1 293.8,3.5 "/>
<polygon class="st0" points="107,3.9 90.6,98 117,98 126.7,25 128.8,25 138.5,98 164.9,98 148.6,3.9 "/>
<path class="st0" d="M660.4,45.8v13.9h6.8v14.9c0,7.3-6.2,7.4-6.2,7.4c-7.6,0-7.3-6.9-7.3-6.9V23.5c0-5.3,6.7-5.6,6.7-5.6
	c6.5,0,6.5,6.3,6.5,6.3V32h24.8c0.8-15.3-2.2-19-2.2-19C683.3-0.7,660,0,660,0c-35.8,0-31.8,27.5-31.8,27.5v49.8
	c0.8,25.8,36.1,23.2,36.7,23.1c15.7-1.7,20.4-6.7,20.4-6.7c4.4-3.2,5.5-7.7,5.5-7.7c1.2-2.6,1.6-10.9,1.6-10.9V45.8H660.4
	L660.4,45.8z"/>
<polygon class="st0" points="578.1,61.1 577,61.1 551.8,3.5 521.6,3.5 521.6,98.1 546.2,98.1 544.7,40.6 545.8,40.6 571.9,98.1 
	601.2,98.1 601.2,3.5 576.3,3.5 "/>
<path class="st0" d="M461.7,74.5c0,0,0.4,7.8-6.8,7.8c0,0-7.6,0.4-7.6-7.6l-0.1-71.2h-26.9v70.6c0,0-2.8,26.7,34.9,26.7
	c0,0,32.8,0.4,32.8-25.5V3.6h-26.3V74.5L461.7,74.5z"/>
<path class="st0" d="M55.6,47.1c0,0-6.7-4.2-10.9-5.8c0,0-12.9-6-15.4-8.8c0,0-5-4.7-2.1-10.2c0,0,1.2-3.6,6.5-3.6
	c0,0,6.9,0.4,6.9,6.1v8h24.8V21c0,0,1.9-19.3-29.2-20.2c0,0-2.3-0.2-5.8,0c0,0-18.8,1-25.6,11.3c0,0.1-0.1,0.1-0.1,0.2
	c0,0-2.7,2.9-2.7,13.2v7.4c0,0-0.3,8.5,4.1,14c0,0,2.5,3.6,8.5,7.6c0,0,12.3,6.6,19.7,10.4c0,0,7.5,4.3,6.5,11c0,0-0.6,7-7.8,6.7
	c0,0-6.6-0.3-6.6-7.1v-8H0v11.6c0,0-0.7,22.3,33.2,22.3c0,0,32.4,0.7,33.9-22.8V69C67.1,69,68.2,54.6,55.6,47.1L55.6,47.1z"/>
</svg>
